<?xml version="1.0" encoding="UTF-8" standalone="no"?>
<!-- Created with Inkscape (http://www.inkscape.org/) -->

<svg
   width="132.10281mm"
   height="135.53938mm"
   viewBox="0 0 132.10281 135.53938"
   version="1.1"
   id="svg5"
   xmlns="http://www.w3.org/2000/svg"
   xmlns:svg="http://www.w3.org/2000/svg">
  <defs
     id="defs2" />
  <g
     id="layer1"
     transform="translate(-9.4503085,-31.784699)">
    <g
       aria-label="G"
       id="text4369"
       style="font-size:117.658px;line-height:1.25;stroke-width:2.94146"
       transform="translate(165.3696,0.4752)">
      <g
         id="g5381">
        <path
           d="m -55.750127,135.19232 c -4.672615,2.14481 -9.785682,4.02151 -15.339201,5.63012 -5.515219,1.57031 -10.858087,2.35546 -16.028605,2.35546 -6.664222,0 -12.773092,-0.9192 -18.326607,-2.75761 -5.55352,-1.83841 -10.28359,-4.59602 -14.1902,-8.27283 -3.94491,-3.71511 -6.98978,-8.34943 -9.13458,-13.90295 -2.14481,-5.59182 -3.21721,-12.12199 -3.21721,-19.59051 0,-13.67315 3.98321,-24.45463 11.94964,-32.34446 8.00472,-7.92813 18.97771,-11.89219 32.918957,-11.89219 4.864117,0 9.823984,0.59365 14.879601,1.78095 5.093917,1.14901 10.570836,3.12146 16.430755,5.91737 v 13.5008 h -1.034103 c -1.187304,-0.91921 -2.91081,-2.12566 -5.170518,-3.61936 -2.259707,-1.49371 -4.481115,-2.73846 -6.664222,-3.73427 -2.642709,-1.1873 -5.64927,-2.16395 -9.019681,-2.92996 -3.332111,-0.8043 -7.123824,-1.20645 -11.375138,-1.20645 -9.575033,0 -17.158461,3.08316 -22.750281,9.24948 -5.55351,6.12802 -8.33027,14.43915 -8.33027,24.93338 0,11.06874 2.91081,19.68627 8.73243,25.85259 5.82161,6.12802 13.749742,9.19203 23.784376,9.19203 3.676812,0 7.334474,-0.36385 10.972987,-1.09155 3.676812,-0.72771 6.894023,-1.66606 9.651632,-2.81506 v -20.96932 h -78.996225 v -9.99634 h 90.256463 z"
           id="path4979"
           style="fill:#000000" />
        <ellipse
           style="fill:none;stroke:#1a1a1a;stroke-width:9.84133;stroke-miterlimit:4;stroke-dasharray:none"
           id="path5177"
           cx="-89.867882"
           cy="99.079193"
           rx="56.130745"
           ry="57.84903" />
      </g>
    </g>
  </g>
</svg>
